<?xml version="1.0" standalone="no"?>
<!DOCTYPE svg PUBLIC "-//W3C//DTD SVG 20010904//EN"
 "http://www.w3.org/TR/2001/REC-SVG-20010904/DTD/svg10.dtd">
<svg version="1.0" xmlns="http://www.w3.org/2000/svg"
 width="7972.000000pt" height="7973.000000pt" viewBox="0 0 7972.000000 7973.000000"
 preserveAspectRatio="xMidYMid meet">

<g transform="translate(0.000000,7973.000000) scale(0.100000,-0.100000)"
fill="#000000" stroke="none">
<path d="M44132 70200 c-27 -11 -39 -37 -26 -57 7 -11 37 -16 124 -18 187 -5
346 -47 524 -138 227 -116 433 -310 566 -535 36 -61 47 -71 64 -66 15 4 17 3
8 -4 -11 -7 -8 -26 17 -95 17 -48 41 -137 53 -199 21 -101 23 -141 23 -378 -1
-484 -64 -888 -201 -1280 -126 -364 -297 -700 -724 -1425 -367 -624 -630
-1108 -831 -1535 -182 -387 -430 -968 -519 -1217 -23 -63 -22 -93 3 -93 17 0
261 184 357 269 289 256 519 552 687 883 31 62 65 135 77 163 12 29 24 54 28
56 4 2 49 -57 101 -131 100 -144 130 -168 143 -114 7 29 -1 254 -12 318 l-7
39 59 -40 c95 -65 201 -113 302 -139 98 -25 186 -31 197 -14 3 5 -12 42 -34
82 -57 104 -96 203 -128 326 -27 101 -28 118 -27 317 0 194 2 217 26 307 81
298 234 531 406 615 74 37 79 38 181 38 82 -1 123 -6 181 -24 155 -48 386
-176 515 -286 87 -73 153 -174 236 -355 60 -132 105 -207 158 -263 48 -52 110
-90 128 -79 19 12 33 110 33 227 l0 114 58 -35 c79 -48 178 -76 271 -78 112
-2 110 9 -44 183 -69 78 -125 143 -125 144 0 1 64 2 143 3 127 1 150 4 216 27
90 33 161 73 161 92 0 22 -61 63 -204 135 l-134 68 159 171 c90 97 159 180
159 191 0 21 11 18 -215 46 -336 40 -576 116 -762 240 -248 165 -399 417 -472
784 -27 141 -37 221 -61 510 -41 498 -81 679 -201 927 -54 110 -155 267 -224
348 -23 28 -63 93 -89 145 -92 184 -179 302 -328 446 -200 193 -441 321 -687
368 -103 20 -279 29 -309 16z"/>
<path d="M40887 68803 c-41 -65 -173 -292 -294 -504 -300 -525 -408 -696 -578
-914 -41 -53 -75 -98 -75 -100 0 -19 258 15 397 51 472 122 869 444 1249 1009
121 180 268 424 261 432 -10 9 -822 143 -869 143 -10 0 -46 -47 -91 -117z"/>
<path d="M31430 66634 c-511 -182 -886 -384 -1269 -685 -136 -108 -403 -374
-510 -509 -349 -440 -560 -922 -626 -1423 -19 -149 -20 -475 -1 -617 30 -223
91 -438 193 -685 25 -60 121 -265 212 -455 92 -190 189 -395 216 -455 l48
-111 71 -28 c94 -38 376 -179 501 -251 301 -174 613 -403 937 -689 70 -62 88
-73 92 -59 34 117 42 739 13 953 -63 454 -139 669 -490 1395 -161 333 -231
496 -290 677 -144 435 -155 916 -32 1386 152 578 511 1127 1020 1559 28 24 48
43 45 42 -3 0 -61 -20 -130 -45z"/>
<path d="M37532 63375 c-59 -50 -223 -311 -295 -471 -51 -112 -80 -190 -148
-398 -64 -195 -126 -327 -196 -419 -157 -204 -463 -315 -723 -263 -64 13 -129
38 -260 101 -206 99 -258 115 -359 115 -87 0 -146 -22 -199 -73 -89 -85 -115
-244 -63 -392 33 -93 108 -191 282 -370 328 -338 460 -566 459 -796 -1 -136
-55 -245 -142 -287 -57 -28 -91 -27 -153 2 -59 28 -94 64 -165 170 -68 102
-112 150 -180 195 -134 91 -263 100 -373 28 -117 -77 -182 -265 -157 -451 43
-312 243 -599 592 -849 45 -31 153 -101 242 -153 195 -117 291 -187 374 -273
116 -120 173 -228 193 -365 l11 -76 39 116 c140 416 399 692 729 775 75 18
119 21 365 24 366 4 454 23 614 129 232 154 373 452 292 619 -43 88 -150 163
-271 188 -80 17 -237 5 -345 -25 -354 -101 -450 -114 -580 -81 -175 46 -290
183 -271 323 15 109 108 222 237 286 85 43 165 61 384 86 213 24 304 47 430
109 167 81 258 161 310 273 20 42 25 69 25 133 0 71 -4 89 -34 150 -58 122
-174 211 -315 241 -103 22 -205 17 -371 -16 -82 -16 -162 -30 -178 -30 -59 0
-129 29 -165 69 -75 83 -70 215 18 479 59 177 103 276 292 658 88 176 167 346
177 378 22 70 15 117 -21 146 -34 27 -65 25 -101 -5z"/>
<path d="M56850 59984 c-82 -17 -208 -78 -285 -137 -33 -25 -123 -110 -200
-189 -123 -127 -149 -149 -220 -184 -68 -34 -88 -39 -145 -39 l-67 0 51 -29
c164 -93 282 -233 321 -383 21 -78 19 -125 -9 -261 -35 -169 -39 -212 -27
-278 31 -165 161 -304 287 -304 71 0 110 28 153 110 l33 65 -6 175 c-8 215 1
256 72 330 59 61 99 71 166 42 33 -15 54 -34 75 -68 47 -73 56 -131 43 -281
-20 -227 19 -370 121 -444 33 -24 50 -29 99 -29 71 0 120 22 170 78 50 55 68
120 77 268 7 126 7 127 39 155 83 74 230 6 582 -271 172 -135 206 -156 243
-146 57 14 40 61 -54 151 -88 84 -166 142 -284 210 -210 122 -275 184 -315
301 -28 79 -27 195 1 270 12 31 51 95 86 142 80 105 102 152 103 219 0 71 -38
116 -117 139 -93 27 -159 7 -318 -95 -266 -172 -447 -212 -564 -124 -37 29
-65 85 -56 114 14 42 57 78 126 105 121 48 189 125 189 216 0 82 -67 148 -177
174 -71 17 -109 16 -193 -2z"/>
<path d="M27635 55962 c-73 -31 -100 -50 -151 -104 -102 -109 -132 -191 -174
-488 -43 -303 -94 -498 -167 -644 -63 -126 -160 -234 -255 -282 -68 -35 -196
-46 -246 -20 -73 38 -109 113 -99 209 3 28 22 102 43 162 35 101 38 119 38
220 0 133 -22 201 -87 267 -59 61 -107 82 -199 86 -207 11 -413 -145 -546
-413 -90 -183 -122 -331 -129 -605 -5 -177 -2 -229 18 -385 31 -241 31 -464 0
-580 -39 -147 -113 -266 -206 -333 -23 -16 0 -10 98 23 302 105 560 121 792
48 202 -64 326 -161 500 -393 172 -229 253 -312 376 -383 120 -69 309 -105
452 -87 279 35 408 174 362 392 -34 165 -112 261 -365 449 -85 64 -183 145
-217 182 -253 272 -150 627 176 604 157 -11 235 -59 471 -291 91 -89 183 -176
205 -193 126 -95 309 -170 440 -180 58 -5 88 -1 146 17 63 19 80 30 130 80 72
74 100 142 107 261 10 188 -72 335 -289 519 -53 45 -110 100 -127 123 -85 121
-59 234 74 322 65 44 234 116 354 152 l87 26 12 93 c6 51 11 99 11 107 0 11
-18 8 -82 -15 -206 -73 -397 -92 -538 -54 -97 26 -216 87 -291 150 -157 129
-231 265 -279 507 -46 232 -70 295 -149 382 -72 80 -200 110 -296 69z"/>
<path d="M56537 55264 c-170 -313 -349 -495 -553 -563 -208 -69 -409 -52 -816
70 -369 110 -386 113 -608 114 -191 0 -198 -1 -320 -34 -69 -18 -165 -38 -214
-43 -303 -32 -584 -181 -752 -399 -49 -65 -116 -184 -134 -243 -11 -35 -11
-41 6 -53 23 -17 29 -10 68 78 60 138 152 254 274 346 141 106 288 169 486
208 76 15 100 16 175 6 195 -27 355 -85 631 -228 480 -248 715 -469 1315
-1237 257 -329 483 -602 688 -829 182 -202 601 -626 737 -747 52 -46 96 -87
98 -91 3 -7 -15 -5 -156 23 -57 11 -105 18 -107 16 -6 -6 -69 -346 -109 -583
-42 -249 -103 -640 -186 -1195 -115 -763 -214 -1327 -311 -1765 -153 -690
-354 -1328 -587 -1857 -55 -126 -59 -138 -39 -133 132 28 589 65 892 72 844
19 1619 -118 2360 -417 165 -67 493 -227 655 -320 802 -463 1511 -1141 2102
-2010 172 -253 294 -455 517 -860 35 -64 41 -70 36 -40 -3 19 -23 154 -45 300
-581 3835 -2082 7461 -4320 10435 -252 335 -344 454 -350 455 -9 0 -162 -399
-238 -620 -80 -234 -180 -575 -233 -792 -18 -76 -36 -138 -39 -138 -3 0 -20
29 -38 63 -74 144 -220 342 -353 478 l-51 53 117 27 c129 30 151 42 121 64
-20 15 -138 58 -204 75 l-43 11 60 40 c96 64 231 232 216 270 -4 11 -40 14
-183 14 -164 1 -184 3 -265 28 -220 68 -410 207 -525 385 -81 126 -94 242 -39
354 56 115 251 292 400 364 76 36 141 48 330 63 110 8 138 14 193 40 48 23 64
35 64 51 0 26 -70 71 -150 96 -33 11 -60 21 -60 24 1 3 21 20 46 38 71 52 151
189 126 214 -5 5 -61 -10 -136 -37 -70 -26 -130 -44 -133 -42 -2 3 5 23 16 46
49 96 70 281 35 316 -15 14 -19 14 -46 -3 -17 -11 -64 -50 -105 -87 -41 -37
-77 -65 -80 -62 -3 4 -36 70 -74 149 -46 95 -75 144 -87 146 -12 2 -32 -25
-75 -104z"/>
<path d="M36326 53784 c-12 -12 -16 -37 -16 -102 0 -48 -3 -185 -7 -304 l-6
-217 -93 98 c-51 54 -127 121 -169 150 -93 65 -236 133 -335 160 -159 44 -167
32 -110 -164 23 -77 66 -201 95 -275 30 -74 52 -136 50 -138 -2 -3 -166 -17
-364 -32 -239 -18 -366 -32 -376 -40 -8 -7 -15 -21 -15 -31 0 -11 54 -81 120
-157 325 -373 545 -711 653 -1002 77 -207 112 -452 96 -670 -18 -242 -82 -450
-222 -724 -117 -229 -261 -438 -582 -846 -307 -390 -429 -563 -549 -778 -188
-336 -295 -715 -326 -1147 -7 -95 -17 -151 -35 -205 -80 -234 -115 -434 -122
-700 -18 -655 208 -1240 634 -1639 85 -80 101 -91 133 -91 42 0 70 24 70 61 0
18 -20 41 -75 89 -269 231 -478 590 -574 980 -50 206 -64 344 -58 590 5 214
15 304 56 470 11 43 15 77 10 81 -13 7 50 161 118 289 191 361 471 672 1063
1180 383 329 694 536 1140 759 532 265 932 408 2255 807 882 266 1620 512
2220 739 395 150 1098 446 1630 687 287 130 695 336 702 355 13 32 -23 43
-217 67 -341 42 -558 51 -849 36 -568 -29 -1085 -147 -1586 -361 -88 -37 -161
-67 -162 -65 -2 1 14 120 34 264 40 277 39 294 -6 300 -16 3 -41 -17 -97 -75
-81 -85 -207 -237 -265 -322 l-37 -53 -7 43 c-42 263 -159 514 -338 722 -75
88 -100 78 -128 -49 -145 -651 -640 -1220 -1268 -1456 -248 -93 -492 -128
-661 -94 -296 60 -507 306 -668 781 -92 270 -128 470 -119 660 7 138 26 223
102 455 95 291 100 315 100 490 0 135 -3 160 -20 195 -12 25 -28 41 -41 43
-46 7 -266 -187 -354 -310 -36 -52 -50 -59 -50 -29 0 39 -52 187 -92 261 -47
88 -129 193 -191 244 -48 40 -68 44 -91 20z"/>
<path d="M23602 43928 c-5 -7 -26 -94 -47 -193 -115 -561 -251 -925 -451
-1207 -85 -120 -279 -311 -393 -387 -274 -182 -605 -284 -1046 -322 -73 -6
-400 -12 -745 -13 -502 -2 -643 -6 -765 -20 -471 -53 -834 -186 -1250 -456
-88 -57 -148 -88 -225 -115 -227 -79 -505 -236 -705 -398 -116 -94 -310 -296
-399 -416 -240 -323 -385 -698 -402 -1041 -7 -128 -1 -146 51 -155 53 -11 62
6 75 145 40 462 256 895 621 1245 179 172 362 299 590 409 69 34 125 65 125
70 -1 12 171 61 285 80 387 67 795 41 1449 -90 502 -101 746 -171 1085 -309
598 -243 1121 -557 2115 -1269 679 -486 828 -591 1084 -766 775 -529 1327
-867 2206 -1353 392 -216 1083 -569 1143 -583 48 -11 36 41 -40 174 -222 389
-453 693 -768 1008 -345 346 -656 576 -1119 829 -17 9 -25 19 -20 24 5 5 104
62 219 127 116 64 218 124 228 132 18 16 22 39 8 61 -14 22 -199 41 -404 41
l-189 0 50 58 c132 152 228 318 286 493 39 118 67 244 59 265 -13 36 -39 34
-127 -6 -712 -329 -1573 -214 -2162 289 -149 127 -251 277 -289 422 -13 49
-16 92 -13 189 4 110 9 138 41 233 84 247 280 562 488 781 163 173 313 261
629 372 294 102 416 169 528 288 64 68 79 110 49 134 -44 37 -373 89 -473 75
-24 -3 -44 -3 -44 1 0 3 22 34 50 68 100 124 173 306 186 466 6 67 4 81 -11
96 -10 10 -25 16 -34 13 -9 -2 -125 -83 -257 -180 -133 -98 -244 -177 -246
-177 -3 0 1 23 8 51 56 215 29 513 -64 700 -31 61 -42 75 -63 77 -23 3 -34 -7
-71 -55 -71 -92 -162 -229 -226 -340 l-58 -102 -247 275 c-251 278 -275 299
-305 262z"/>
<path d="M51239 42899 c-58 -4 -268 -14 -465 -23 -958 -44 -1317 -71 -1729
-132 -593 -88 -1105 -242 -1710 -515 -187 -84 -729 -359 -1100 -558 -946 -508
-1517 -754 -2092 -901 l-43 -11 0 -114 c0 -208 -41 -624 -91 -925 -262 -1582
-1027 -3083 -2129 -4180 -532 -530 -1097 -937 -1760 -1269 -623 -311 -1256
-507 -2230 -691 -199 -37 -405 -72 -1340 -225 -1188 -194 -2054 -435 -2885
-802 -543 -240 -1012 -483 -2060 -1066 -1069 -594 -1611 -870 -2197 -1118
-852 -361 -1657 -574 -2478 -656 -219 -22 -847 -25 -1040 -5 -918 94 -1618
358 -2298 866 -236 176 -398 320 -693 615 -292 293 -488 511 -969 1080 -804
949 -1204 1347 -1725 1712 -456 319 -841 522 -1950 1025 -370 168 -887 420
-1069 523 l-109 61 7 -68 c11 -107 73 -544 117 -822 260 -1648 694 -3291 1262
-4780 137 -361 190 -490 200 -490 5 0 46 22 91 49 1083 649 2422 923 3831 785
376 -37 783 -109 1184 -209 294 -74 501 -138 956 -295 596 -206 1401 -459
1810 -571 66 -17 121 -33 122 -34 2 -1 -35 -65 -82 -142 -702 -1169 -1147
-2524 -1284 -3913 -11 -113 -26 -279 -33 -370 -13 -184 -17 -948 -5 -1135 48
-766 155 -1394 352 -2080 53 -186 92 -273 138 -307 32 -25 97 -52 104 -44 3 2
-16 67 -40 143 -137 419 -229 942 -283 1607 -21 263 -29 935 -15 1216 75 1450
438 2919 1007 4066 201 406 345 637 505 811 l38 42 108 -30 c456 -123 1342
-311 1928 -408 1061 -177 1885 -249 2951 -258 l620 -5 -27 -175 c-113 -710
-191 -1486 -220 -2188 -13 -314 -7 -1134 10 -1385 84 -1212 282 -2136 656
-3065 141 -350 304 -690 439 -915 59 -98 110 -137 193 -146 64 -8 147 27 186
78 29 37 57 108 57 142 0 11 -51 124 -114 251 -333 670 -640 1524 -841 2340
-161 655 -251 1211 -307 1890 -20 248 -17 1059 5 1295 60 635 156 1111 332
1635 40 121 76 228 80 237 6 14 -1 17 -37 21 -34 3 -29 4 22 5 106 3 479 30
715 52 1197 111 2446 358 3695 731 188 56 673 212 739 237 9 3 12 1 7 -6 -8
-14 16 -361 44 -622 233 -2163 1081 -4260 2417 -5973 255 -326 597 -719 672
-772 35 -25 54 -30 114 -33 68 -4 75 -2 122 30 66 44 107 121 103 193 -3 49
-4 50 -68 93 -1057 704 -1801 1893 -2338 3737 -295 1011 -500 2060 -553 2830
-10 147 -8 648 3 695 2 8 69 40 163 76 1313 504 2513 1114 3640 1852 105 68
187 121 184 118 -13 -14 651 -1368 931 -1901 978 -1858 1876 -3174 2911 -4265
265 -278 420 -427 469 -449 131 -60 276 11 310 151 10 40 8 72 -15 219 -14 95
-32 200 -39 233 l-12 61 -184 139 c-370 277 -643 518 -1005 887 -763 777
-1407 1698 -1930 2764 -447 910 -733 1774 -805 2430 -6 55 -12 114 -15 131 -3
31 3 36 143 140 920 682 1901 1560 2702 2419 189 202 345 366 276 288 -21 -23
-26 -36 -19 -45 113 -146 559 -695 782 -963 1610 -1930 3018 -3196 4506 -4050
177 -101 489 -266 610 -322 121 -56 230 -43 296 36 36 44 63 131 55 174 -6 28
-15 36 -84 66 -314 139 -854 427 -1157 616 -373 233 -866 585 -1130 809 -381
323 -516 448 -824 761 -781 793 -1442 1737 -1901 2715 -121 259 -214 478 -323
769 -35 95 -49 120 -80 145 l-37 30 -43 -39 c-50 -47 50 57 444 464 341 353
842 833 1159 1111 47 41 87 78 90 81 3 3 102 87 220 185 668 557 1287 970
1943 1295 70 35 127 66 127 69 0 4 -39 12 -87 18 -210 29 -642 82 -798 98 -93
9 -171 18 -173 19 -5 5 176 725 262 1040 237 869 489 1602 761 2214 42 96 143
306 225 468 l148 293 -61 -1 c-34 -1 -110 -5 -168 -10z m-4169 -7432 c0 -1
-28 -29 -62 -62 l-63 -60 60 63 c55 58 65 67 65 59z m-150 -160 c0 -1 -26 -27
-57 -57 l-58 -55 55 58 c50 53 60 62 60 54z m-180 -192 c-24 -25 -46 -45 -49
-45 -3 0 15 20 39 45 24 25 46 45 49 45 3 0 -15 -20 -39 -45z m-90 -98 c0 -1
-24 -25 -52 -52 l-53 -50 50 53 c46 48 55 57 55 49z m-3730 -3301 c0 -2 -8
-10 -17 -17 -16 -13 -17 -12 -4 4 13 16 21 21 21 13z m-10033 -3363 c-20 -2
-52 -2 -70 0 -17 2 0 4 38 4 39 0 53 -2 32 -4z"/>
</g>
</svg>
